<svg version="1.1"
  width="960" height="260"
  viewBox="0 0 960 260"
  fill="none"
  stroke="none"
  stroke-linecap="square"
  stroke-miterlimit="10"
  xmlns:xlink="http://www.w3.org/1999/xlink" xmlns="http://www.w3.org/2000/svg">

  <g>
    <path fill="#666666" d="m147.00272 135.3083c-3.5972137 0 -6.2077637 0.40066528 -7.8316345 1.2019958c-1.6033325 0.79241943 -2.5694427 1.8786621 -2.8983307 3.258728l-22.724075 67.93927c-0.4316635 1.6471863 0.39055634 2.8714294 2.4666595 3.67276c2.0966568 0.80133057 4.8510895 1.2019958 8.263298 1.2019958l27.47239 0c3.5972137 0 6.1974792 -0.39620972 7.800812 -1.1886444c1.6238861 -0.79241943 2.6002655 -1.8786774 2.9291534 -3.258728l22.724075 -67.93927c0.41111755 -1.6382751 -0.42138672 -2.8625336 -2.4974823 -3.67276c-2.0761108 -0.81022644 -4.8202667 -1.2153473 -8.232468 -1.2153473z" fill-rule="evenodd"/>
    <path fill="#000000" d="m151.52486 49.263454c3.5724487 0 6.165024 0.40066147 7.777725 1.2019844c1.5922852 0.79241943 2.5517578 1.8786545 2.8783722 3.2587128l22.567673 67.93886c0.42869568 1.647171 -0.38786316 2.8714142 -2.4496765 3.6727371c-2.0822296 0.80132294 -4.8177032 1.2019806 -8.206421 1.2019806l-27.28331 0c-3.5724487 0 -6.1548157 -0.39620972 -7.747116 -1.1886292c-1.6127014 -0.79241943 -2.582367 -1.8786621 -2.9089966 -3.2587128l-22.567665 -67.93886c-0.40827942 -1.6382599 0.41848755 -2.862503 2.480301 -3.6727295c2.0618134 -0.81023026 4.787079 -1.2153397 8.175804 -1.2153397z" fill-rule="evenodd"/>
    <path fill="#666666" d="m87.50796 135.3083c-3.597206 0 -6.2077484 0.40066528 -7.8316345 1.2019958c-1.6033249 0.79241943 -2.5694351 1.8786621 -2.898323 3.258728l-22.72408 67.93927c-0.4316635 1.6471863 0.39055634 2.8714294 2.4666595 3.67276c2.0966568 0.80133057 4.8510895 1.2019958 8.263302 1.2019958l27.472397 0c3.597206 0 6.1974716 -0.39620972 7.800804 -1.1886444c1.6238785 -0.79241943 2.6002655 -1.8786774 2.9291534 -3.258728l22.724075 -67.93927c0.41111755 -1.6382751 -0.4213791 -2.8625336 -2.49749 -3.67276c-2.0761032 -0.81022644 -4.820259 -1.2153473 -8.232468 -1.2153473z" fill-rule="evenodd"/>
    <path fill="#000000" d="m92.0301 49.263454c3.5724487 0 6.165024 0.40066147 7.777733 1.2019844c1.5922928 0.79241943 2.5517502 1.8786545 2.8783722 3.2587128l22.567673 67.93886c0.42869568 1.647171 -0.3878708 2.8714142 -2.4496841 3.6727371c-2.082222 0.80132294 -4.8176956 1.2019806 -8.206421 1.2019806l-27.28331 0c-3.5724487 0 -6.1548157 -0.39620972 -7.7471085 -1.1886292c-1.612709 -0.79241943 -2.5823746 -1.8786621 -2.9089966 -3.2587128l-22.567669 -67.93886c-0.40827942 -1.6382599 0.41848755 -2.862503 2.480301 -3.6727295c2.0618134 -0.81023026 4.7870827 -1.2153397 8.175808 -1.2153397z" fill-rule="evenodd"/>
  
    <path fill="#000000" d="m285.27148 72.94693c9.7664795 0.1479721 17.103638 2.5895996 22.011536 7.324875c4.932556 4.7352753 7.398834 11.431252 7.398834 20.087921c0 8.286736 -2.6635742 14.822403 -7.990753 19.606995c-5.3271484 4.759941 -12.725983 7.139908 -22.196472 7.139908l-28.855453 0l0 -54.1597zm-57.710876 -22.640533l0 161.59125l28.078568 0l0 -62.26146l31.297043 0l32.40689 62.26146l30.076263 0l0 -1.4427795l-36.29126 -67.366684c9.32251 -3.921402 16.585693 -9.519867 21.78955 -16.795425c5.2285156 -7.300209 7.8427734 -16.351494 7.8427734 -27.15384c0 -15.833572 -5.068207 -27.930725 -15.20462 -36.291443c-10.136383 -8.360718 -24.52713 -12.541077 -43.17218 -12.541077z" fill-rule="evenodd"/>
    <path fill="#000000" d="m366.17773 91.81403l0 77.79908c0 14.427795 3.3417969 25.452103 10.025421 33.072937c6.7082825 7.6208344 16.573364 11.431244 29.595306 11.431244c14.575714 0 25.82193 -4.6612854 33.738678 -13.983856l0.66589355 11.764206l25.415009 0l0 -120.08361l-26.96875 0l0 86.23379c-4.5872803 9.396561 -13.428894 14.094849 -26.52481 14.094849c-12.652008 0 -18.977997 -7.6208344 -18.977997 -22.862503l0 -77.46613z" fill-rule="evenodd"/>
    <path fill="#000000" d="m553.8491 89.594376c-14.427734 0 -26.080872 5.3641815 -34.959473 16.092537l-0.7769165 -13.872879l-25.414978 0l0 120.08361l26.96875 0l0 -85.45691c5.3271484 -9.840492 13.428894 -14.760742 24.305176 -14.760742c7.4728394 0 12.849304 1.8373871 16.129456 5.5121536c3.3048096 3.650116 4.9572144 9.2855835 4.9572144 16.90641l0 77.79909l26.96875 0l0 -79.352844c-0.44396973 -28.633614 -13.169922 -42.950424 -38.17798 -42.950424z" fill-rule="evenodd"/>
    <path fill="#000000" d="m675.15295 39.09711c-10.062378 0 -18.682007 1.7017403 -25.858887 5.105221c-7.17688 3.4034767 -12.726013 8.471699 -16.6474 15.20467c-3.9213867 6.7329674 -5.9190674 14.797733 -5.993042 24.194294l0 8.212738l-18.312134 0l0 19.976944l18.312134 0l0 100.10667l26.96875 0l0 -100.10667l23.639282 0l0 -19.976944l-23.639282 0l0 -7.5468445c0 -7.176895 1.8496704 -12.553406 5.5491333 -16.129524c3.6994019 -3.6007843 9.655457 -5.4011726 17.868164 -5.4011726c8.434692 0 17.757202 1.7757301 27.96759 5.327183l4.1063232 -22.307583c-5.8450317 -1.923706 -11.492859 -3.5144615 -16.943298 -4.77227c-5.4258423 -1.2578049 -11.098267 -1.8867111 -17.017334 -1.8867111zm19.754883 52.716923l0 120.08361l26.96875 0l0 -120.08361z" fill-rule="evenodd"/>
    <path fill="#000000" d="m753.5066 41.427753l0 170.4699l26.96875 0l0 -170.4699z" fill-rule="evenodd"/>
    <path fill="#000000" d="m859.4949 111.23606c7.4728394 0 13.317932 2.3183136 17.535217 6.954933c4.217346 4.6119614 6.6219482 11.431244 7.213867 20.45787l0 1.9976959l-51.384888 0c1.2578125 -9.248581 4.1557007 -16.462486 8.693665 -21.641693c4.562622 -5.179199 10.543335 -7.7688065 17.942139 -7.7688065zm0.110961914 -21.641685c-10.284363 0 -19.606873 2.6266022 -27.96753 7.8797913c-8.360718 5.2531967 -14.859375 12.602745 -19.495972 22.048622c-4.6119385 9.4212265 -6.9179077 20.124916 -6.9179077 32.11109l0 3.329483c0 17.905258 5.3025513 32.24672 15.907532 43.024414c10.629639 10.753006 24.490112 16.129517 41.58142 16.129517c9.988403 0 18.990295 -1.9730225 27.005737 -5.9190826c8.040039 -3.9707336 14.464722 -9.54454 19.273926 -16.721436l-14.538696 -13.872879c-7.768738 9.988464 -17.831177 14.982697 -30.187195 14.982697c-8.804626 0 -16.117126 -2.885559 -21.937561 -8.656662c-5.7957764 -5.771118 -9.100586 -13.613922 -9.914429 -23.528397l78.4646 0l0 -10.876343c0 -19.089066 -4.4639893 -33.849808 -13.391846 -44.28221c-8.90332 -10.432404 -21.53064 -15.648605 -37.88208 -15.648605z" fill-rule="evenodd"/>
  </g>
</svg>